<svg viewBox="0 0 96 96" xmlns="http://www.w3.org/2000/svg" xmlns:xlink="http://www.w3.org/1999/xlink" id="Icons_Direction" overflow="hidden"><style>
.MsftOfcThm_Text2_Fill_v2 {
 fill:#44546A; 
}
.MsftOfcThm_Text2_Stroke_v2 {
 stroke:#44546A; 
}
</style>
<path d="M79.8 14C79.6 14 79.3 14 79.1 14.1L15.5 35.3C14.6 35.6 14 36.4 14 37.3 14 38.2 14.6 39 15.5 39.3L45.7 50.2 56.6 80.4C56.9 81.3 57.7 81.9 58.6 81.9 59.5 81.9 60.3 81.3 60.6 80.4L81.8 16.7C82 16 81.9 15.3 81.5 14.8 81.2 14.4 80.6 14 79.8 14L79.8 14ZM73.8 22.2 58.5 68.1 51.4 48.3 50.4 45.6 47.7 44.6 27.9 37.5 73.8 22.2" class="MsftOfcThm_Text2_Fill_v2 MsftOfcThm_Text2_Stroke_v2" stroke="#44546A" fill="#44546A"/></svg>