<svg viewBox="0 0 96 96" xmlns="http://www.w3.org/2000/svg" xmlns:xlink="http://www.w3.org/1999/xlink" id="Icons_JokerHat" overflow="hidden"><path d="M93 53.39C93.0251 55.599 91.2547 57.4101 89.0457 57.4352 86.8367 57.4603 85.0256 55.6899 85.0005 53.4809 84.9893 52.4912 85.3454 51.5324 86 50.79 82.78 47.53 77.3 43.5 71 45.39 67.922 46.1825 65.5332 48.6098 64.79 51.7L58.19 54.81 53.74 49.37 48.18 54.24 43.45 49.33 38 55.11 31.73 53.11C31.1 49.65 29.42 45.55 25.05 44.36 18.36 42.53 13.15 45.89 10.1 48.79 11.5235 50.4794 11.3079 53.0029 9.61848 54.4263 7.92908 55.8498 5.40562 55.6342 3.98216 53.9448 2.5587 52.2554 2.77428 49.7319 4.46368 48.3085 5.56774 47.3782 7.08744 47.1151 8.44 47.62 10.55 42.06 15.44 33.62 26.05 33.36 33.05 33.22 37.98 35.69 41.39 39.29 42.92 34.75 44 28.37 52 24.39 63.62 18.58 74.42 23.22 79.59 26.31 80.7448 24.4267 83.2076 23.8362 85.0909 24.9909 86.9742 26.1457 87.5648 28.6086 86.41 30.4919 85.2552 32.3751 82.7923 32.9657 80.909 31.8109 79.7196 31.0816 78.9962 29.7852 79 28.39 79.0008 28.1214 79.0276 27.8535 79.08 27.59 72.76 26.36 60.45 25.52 58.88 37.23 62.6094 35.2591 66.7832 34.281 71 34.39 81.69 34.39 86.16 43.63 87.93 49.55 88.2772 49.4458 88.6375 49.3919 89 49.39 91.2091 49.39 93 51.1809 93 53.39Z" fill="#C00000"/><ellipse cx="48" cy="70.39" rx="15.5" ry="4" fill="#C00000"/><path d="M34.68 65.35C37.39 64.17 42.33 63.35 48 63.35 54.33 63.35 59.77 64.35 62.18 65.73L62.64 65.73 64 55.39 57.35 58.53 53.35 53.67 48 58.39 43.46 53.67 38.84 58.53 32 56.39 32.88 65.82C33.4662 65.6146 34.0682 65.4574 34.68 65.35Z" fill="#C00000"/></svg>